<svg id="visual" viewBox="0 0 960 300" width="960" height="300" xmlns="http://www.w3.org/2000/svg" xmlns:xlink="http://www.w3.org/1999/xlink" version="1.1"><rect x="0" y="0" width="960" height="300" fill="#2A4353"></rect><path d="M0 207L22.8 203.2C45.7 199.3 91.3 191.7 137 188.3C182.7 185 228.3 186 274 188.3C319.7 190.7 365.3 194.3 411.2 192.5C457 190.7 503 183.3 548.8 180.2C594.7 177 640.3 178 686 180.3C731.7 182.7 777.3 186.3 823 188.5C868.7 190.7 914.3 191.3 937.2 191.7L960 192L960 301L937.2 301C914.3 301 868.7 301 823 301C777.3 301 731.7 301 686 301C640.3 301 594.7 301 548.8 301C503 301 457 301 411.2 301C365.3 301 319.7 301 274 301C228.3 301 182.7 301 137 301C91.3 301 45.7 301 22.8 301L0 301Z" fill="#5ca2be"></path><path d="M0 233L22.8 233.5C45.7 234 91.3 235 137 233C182.7 231 228.3 226 274 220C319.7 214 365.3 207 411.2 206C457 205 503 210 548.8 209.7C594.7 209.3 640.3 203.7 686 207.3C731.7 211 777.3 224 823 227C868.7 230 914.3 223 937.2 219.5L960 216L960 301L937.2 301C914.3 301 868.7 301 823 301C777.3 301 731.7 301 686 301C640.3 301 594.7 301 548.8 301C503 301 457 301 411.2 301C365.3 301 319.7 301 274 301C228.3 301 182.7 301 137 301C91.3 301 45.7 301 22.8 301L0 301Z" fill="#478eb1"></path><path d="M0 249L22.8 244.3C45.7 239.7 91.3 230.3 137 226.2C182.7 222 228.3 223 274 224.2C319.7 225.3 365.3 226.7 411.2 228.5C457 230.3 503 232.7 548.8 232.3C594.7 232 640.3 229 686 228.7C731.7 228.3 777.3 230.7 823 230.8C868.7 231 914.3 229 937.2 228L960 227L960 301L937.2 301C914.3 301 868.7 301 823 301C777.3 301 731.7 301 686 301C640.3 301 594.7 301 548.8 301C503 301 457 301 411.2 301C365.3 301 319.7 301 274 301C228.3 301 182.7 301 137 301C91.3 301 45.7 301 22.8 301L0 301Z" fill="#337ba4"></path><path d="M0 254L22.8 251.8C45.7 249.7 91.3 245.3 137 246.7C182.7 248 228.3 255 274 257.3C319.7 259.7 365.3 257.3 411.2 256.3C457 255.3 503 255.7 548.8 257.8C594.7 260 640.3 264 686 263C731.7 262 777.3 256 823 254.3C868.7 252.7 914.3 255.3 937.2 256.7L960 258L960 301L937.2 301C914.3 301 868.7 301 823 301C777.3 301 731.7 301 686 301C640.3 301 594.7 301 548.8 301C503 301 457 301 411.2 301C365.3 301 319.7 301 274 301C228.3 301 182.7 301 137 301C91.3 301 45.7 301 22.8 301L0 301Z" fill="#226796"></path><path d="M0 263L22.8 264C45.7 265 91.3 267 137 269.2C182.7 271.3 228.3 273.7 274 273.2C319.7 272.7 365.3 269.3 411.2 269.2C457 269 503 272 548.8 273.8C594.7 275.7 640.3 276.3 686 278C731.7 279.7 777.3 282.3 823 281.5C868.7 280.7 914.3 276.3 937.2 274.2L960 272L960 301L937.2 301C914.3 301 868.7 301 823 301C777.3 301 731.7 301 686 301C640.3 301 594.7 301 548.8 301C503 301 457 301 411.2 301C365.3 301 319.7 301 274 301C228.3 301 182.7 301 137 301C91.3 301 45.7 301 22.8 301L0 301Z" fill="#135487"></path></svg>