<svg id="visual" viewBox="0 0 960 300" width="960" height="300" xmlns="http://www.w3.org/2000/svg" xmlns:xlink="http://www.w3.org/1999/xlink" version="1.1"><rect x="0" y="0" width="960" height="300" fill="#181719"></rect><path d="M0 194L22.8 192.8C45.7 191.7 91.3 189.3 137 193.3C182.7 197.3 228.3 207.7 274 213.7C319.7 219.7 365.3 221.3 411.2 219.3C457 217.3 503 211.7 548.8 203.5C594.7 195.3 640.3 184.7 686 185.8C731.7 187 777.3 200 823 202.8C868.7 205.7 914.3 198.3 937.2 194.7L960 191L960 301L937.2 301C914.3 301 868.7 301 823 301C777.3 301 731.7 301 686 301C640.3 301 594.7 301 548.8 301C503 301 457 301 411.2 301C365.3 301 319.7 301 274 301C228.3 301 182.7 301 137 301C91.3 301 45.7 301 22.8 301L0 301Z" fill="#5ca2be"></path><path d="M0 199L22.8 203.2C45.7 207.3 91.3 215.7 137 218.8C182.7 222 228.3 220 274 219.5C319.7 219 365.3 220 411.2 223.3C457 226.7 503 232.3 548.8 231.7C594.7 231 640.3 224 686 220.3C731.7 216.7 777.3 216.3 823 217.7C868.7 219 914.3 222 937.2 223.5L960 225L960 301L937.2 301C914.3 301 868.7 301 823 301C777.3 301 731.7 301 686 301C640.3 301 594.7 301 548.8 301C503 301 457 301 411.2 301C365.3 301 319.7 301 274 301C228.3 301 182.7 301 137 301C91.3 301 45.7 301 22.8 301L0 301Z" fill="#478eb1"></path><path d="M0 251L22.8 246.7C45.7 242.3 91.3 233.7 137 233.2C182.7 232.7 228.3 240.3 274 244.2C319.7 248 365.3 248 411.2 246.7C457 245.3 503 242.7 548.8 242.3C594.7 242 640.3 244 686 241.7C731.7 239.3 777.3 232.7 823 233.8C868.7 235 914.3 244 937.2 248.5L960 253L960 301L937.2 301C914.3 301 868.7 301 823 301C777.3 301 731.7 301 686 301C640.3 301 594.7 301 548.8 301C503 301 457 301 411.2 301C365.3 301 319.7 301 274 301C228.3 301 182.7 301 137 301C91.3 301 45.7 301 22.8 301L0 301Z" fill="#337ba4"></path><path d="M0 244L22.8 246C45.7 248 91.3 252 137 252C182.7 252 228.3 248 274 246.7C319.7 245.3 365.3 246.7 411.2 250.7C457 254.7 503 261.3 548.8 265C594.7 268.7 640.3 269.3 686 268C731.7 266.7 777.3 263.3 823 261.5C868.7 259.7 914.3 259.3 937.2 259.2L960 259L960 301L937.2 301C914.3 301 868.7 301 823 301C777.3 301 731.7 301 686 301C640.3 301 594.7 301 548.8 301C503 301 457 301 411.2 301C365.3 301 319.7 301 274 301C228.3 301 182.7 301 137 301C91.3 301 45.7 301 22.8 301L0 301Z" fill="#226796"></path><path d="M0 282L22.8 282.2C45.7 282.3 91.3 282.7 137 283.2C182.7 283.7 228.3 284.3 274 282.8C319.7 281.3 365.3 277.7 411.2 277.8C457 278 503 282 548.8 281.7C594.7 281.3 640.3 276.7 686 273.7C731.7 270.7 777.3 269.3 823 270.3C868.7 271.3 914.3 274.7 937.2 276.3L960 278L960 301L937.2 301C914.3 301 868.7 301 823 301C777.3 301 731.7 301 686 301C640.3 301 594.7 301 548.8 301C503 301 457 301 411.2 301C365.3 301 319.7 301 274 301C228.3 301 182.7 301 137 301C91.3 301 45.7 301 22.8 301L0 301Z" fill="#135487"></path></svg>